PathFileType	4	(X/Y/Z)	5_coords_data.trc
DataRate	CameraRate	NumFrames	NumMarkers	Units	OrigDataRate	OrigDataStartFrame	OrigNumFrames
30.0	30.0	6	21	m	30.0	1	70
Frame#	Time	THUMB_TIP	THUMB_IP	THUMB_MCP	THUMB_CMC	INDEX_TIP	INDEX_DIP	INDEX_PIP	INDEX_MCP	MIDDLE_TIP	MIDDLE_DIP	MIDDLE_PIP	MIDDLE_MCP	RING_TIP	RING_DIP	RING_PIP	RING_MCP	PINKY_TIP	PINKY_DIP	PINKY_PIP	PINKY_MCP	WRIST
X1	Y1	Z1	X2	Y2	Z2	X3	Y3	Z3	X4	Y4	Z4	X5	Y5	Z5	X6	Y6	Z6	X7	Y7	Z7	X8	Y8	Z8	X9	Y9	Z9	X10	Y10	Z10	X11	Y11	Z11	X12	Y12	Z12	X13	Y13	Z13	X14	Y14	Z14	X15	Y15	Z15	X16	Y16	Z16	X17	Y17	Z17	X18	Y18	Z18	X19	Y19	Z19	X20	Y20	Z20	X21	Y21	Z21
0	0.0	-0.01016189956665039	-0.05704090118408203	0.9965479736328124	-0.0033555700778961184	-0.07421849822998047	1.0114199829101562	-0.01722130012512207	-0.08225859832763673	1.0421199951171876	-0.032402198791503904	-0.05709180068969726	1.05325	-0.03363349914550781	-0.0979655990600586	0.9306619873046875	-0.040261600494384764	-0.09626110076904297	0.9537730102539063	-0.04954339981079101	-0.09295590209960937	0.9748070068359375	-0.06132989883422851	-0.08664849853515624	1.0081500244140624	-0.012259400367736817	-0.06377080154418946	1.0353900146484376	-0.015009599685668945	-0.06919020080566406	1.0147100219726561	-0.024767000198364256	-0.07522959899902344	0.9907479858398438	-0.06555750274658204	-0.06789730072021484	1.0039600219726563	-0.005373600006103515	-0.05415129852294922	1.03106005859375	-0.012121999740600586	-0.05541749954223633	1.0128400268554687	-0.02142460060119629	-0.0574822998046875	0.9888790283203125	-0.060097099304199215	-0.04970840072631836	1.002780029296875	-0.03467200088500977	-0.044158401489257815	0.939322998046875	-0.03822460174560547	-0.04266490173339844	0.9622520141601563	-0.04007360076904297	-0.04060139846801758	0.9798670043945312	-0.04090850067138672	-0.03584469985961914	1.008719970703125	-0.05224509811401367	-0.035487800598144534	1.0759200439453125
1	0.03333333333333333	-0.009734649658203125	-0.05792770004272461	0.99710302734375	-0.004255770206451416	-0.07507150268554688	1.0135599975585938	-0.015966400146484375	-0.08316030120849609	1.040469970703125	-0.03166169929504394	-0.06025419998168945	1.054739990234375	-0.03344960021972656	-0.098377197265625	0.931344970703125	-0.04141460037231445	-0.0963383026123047	0.9523079833984375	-0.050594799041748045	-0.09303710174560546	0.974208984375	-0.06002939987182617	-0.08623539733886719	1.0094000244140624	-0.016694299697875975	-0.06535790252685547	1.032949951171875	-0.01709339904785156	-0.06924620056152343	1.0142899780273438	-0.02557270050048828	-0.07494490051269531	0.9897410278320312	-0.06472260284423828	-0.06755840301513671	1.0026500244140626	-0.007860660076141357	-0.05455860137939453	1.031449951171875	-0.014008099555969239	-0.05569409942626953	1.0117899780273438	-0.02266029930114746	-0.05753820037841797	0.9871300048828126	-0.059209300994873044	-0.04918889999389649	1.0020700073242188	-0.036551498413085935	-0.045709701538085935	0.93975	-0.03780739974975586	-0.0430442008972168	0.96022998046875	-0.039751399993896486	-0.04127560043334961	0.9791510009765625	-0.04116650009155273	-0.0368656005859375	1.006510009765625	-0.05147140121459961	-0.036415199279785156	1.07256005859375
2	0.06666666666666667	-0.009841090202331542	-0.05825849914550781	0.9966859741210937	-0.004587379932403565	-0.07534600067138672	1.0133099975585937	-0.016262399673461915	-0.08321620178222656	1.040300048828125	-0.03179680061340332	-0.06013180160522461	1.0545999755859374	-0.03402519989013672	-0.09854799652099609	0.9312160034179687	-0.041955101013183595	-0.09643720245361329	0.9522839965820312	-0.05096189880371094	-0.09311930084228516	0.9741179809570313	-0.06053730010986328	-0.08630819702148437	1.0094099731445312	-0.017252799987792968	-0.06552989959716797	1.0326199951171875	-0.017321399688720703	-0.06955840301513672	1.0142999877929688	-0.025955999374389648	-0.07507279968261718	0.9896510009765624	-0.0651404037475586	-0.06766400146484375	1.0026599731445311	-0.008095990180969239	-0.05446129989624023	1.0314599609375	-0.014757200241088867	-0.055802101135253905	1.0115599975585938	-0.023031200408935547	-0.05761569976806641	0.9870770263671875	-0.05924620056152344	-0.04935589981079101	1.001780029296875	-0.03702420043945313	-0.04615330123901367	0.9397210083007812	-0.03816059875488281	-0.04337879943847656	0.96010498046875	-0.04015399932861328	-0.04148320007324219	0.979010986328125	-0.04176789855957031	-0.037032100677490236	1.0063099975585938	-0.05167050170898437	-0.036430000305175785	1.0725699462890625
3	0.1	-0.010444399833679199	-0.05829830169677734	0.996666015625	-0.005053830146789551	-0.0753916015625	1.0130999755859376	-0.016641399383544923	-0.08327030181884766	1.0402099609375	-0.0321697998046875	-0.06024390029907226	1.0546500244140624	-0.034711299896240236	-0.09849320220947265	0.9310770263671875	-0.042578098297119144	-0.09640419769287109	0.9522039794921875	-0.0515817985534668	-0.09310549926757812	0.9740330200195313	-0.06094570159912109	-0.08625340270996094	1.0094099731445312	-0.017399799346923827	-0.06521600341796875	1.033030029296875	-0.017770700454711914	-0.0695791015625	1.0138099975585937	-0.026542800903320313	-0.07514939880371094	0.9895709838867187	-0.06556310272216796	-0.06760160064697265	1.0026799926757812	-0.008626270294189452	-0.05447169876098633	1.03125	-0.014791500091552735	-0.05586520004272461	1.0118499755859376	-0.023521600723266603	-0.05771739959716797	0.98689599609375	-0.05968550109863281	-0.04924259948730469	1.0020599975585938	-0.03758950042724609	-0.046311599731445316	0.9396810302734375	-0.0387963981628418	-0.04349520111083984	0.9601019897460937	-0.040664901733398436	-0.04149819946289063	0.9790689697265625	-0.04204719924926758	-0.036869998931884765	1.0064099731445313	-0.0519473991394043	-0.03642729949951172	1.0726300048828126
4	0.13333333333333333	-0.010682700157165527	-0.05833530044555664	0.9965549926757813	-0.005391630172729492	-0.07549330139160157	1.0127899780273437	-0.016981399536132813	-0.08327660369873047	1.04027001953125	-0.032339698791503904	-0.06021049880981445	1.0546199951171875	-0.035152400970458984	-0.09842829895019531	0.931094970703125	-0.04294829940795898	-0.09631099700927734	0.9521530151367188	-0.05189749908447266	-0.09299659729003906	0.9740130004882812	-0.06133629989624023	-0.08620240020751953	1.0093900146484376	-0.017386899948120118	-0.06543679809570313	1.032510009765625	-0.018125799179077147	-0.0693572998046875	1.0140599975585938	-0.0268169002532959	-0.07496330261230469	0.9896259765625	-0.0658988037109375	-0.06749169921875	1.0027100219726564	-0.00897776985168457	-0.05445249938964844	1.03156005859375	-0.015158499717712402	-0.055767398834228515	1.011739990234375	-0.023897600173950196	-0.057598300933837894	0.9869979858398438	-0.06029259872436524	-0.04914830017089844	1.0021400146484376	-0.03797029876708984	-0.046319198608398435	0.93964599609375	-0.03919200134277344	-0.043444698333740234	0.9600819702148438	-0.04102410125732422	-0.041410800933837894	0.9789879760742187	-0.0422489013671875	-0.03680229949951172	1.006280029296875	-0.05232270050048828	-0.03629349899291992	1.072739990234375
5	0.16666666666666666	-0.011053000450134277	-0.05823600006103516	0.9965150146484375	-0.005867640018463135	-0.07527899932861327	1.0130499877929688	-0.01724850082397461	-0.08308329772949219	1.0401500244140625	-0.03273929977416992	-0.06014749908447266	1.0546400146484376	-0.03580459976196289	-0.09822650146484375	0.9311719970703125	-0.04347940063476562	-0.09616819763183594	0.9522109985351562	-0.05239519882202148	-0.0928396987915039	0.9741389770507812	-0.06172900009155274	-0.08600559997558593	1.0094500122070313	-0.017875799179077147	-0.06482820129394531	1.0332099609375	-0.018410900115966796	-0.06936150360107422	1.01402001953125	-0.027356199264526367	-0.07490399932861327	0.989655029296875	-0.06628549957275391	-0.06731500244140624	1.0027899780273437	-0.009399160385131836	-0.05425370025634765	1.031300048828125	-0.015389800071716309	-0.055633899688720706	1.0117100219726562	-0.02426289939880371	-0.05743870162963867	0.98697900390625	-0.06063100051879883	-0.04900979995727539	1.00227001953125	-0.03849470138549805	-0.046145301818847656	0.9395980224609375	-0.03972819900512695	-0.04328879928588867	0.9600809936523438	-0.04155749893188477	-0.04124480056762695	0.9790250244140625	-0.042819801330566405	-0.03667330169677734	1.0063300170898437	-0.052420799255371096	-0.03615459823608398	1.072469970703125
